<svg xmlns="http://www.w3.org/2000/svg" viewBox="0 0 400 300" width="400" height="300">
  <!-- Sky gradient background -->
  <defs>
    <linearGradient id="skyGradient" x1="0%" y1="0%" x2="0%" y2="70%">
      <stop offset="0%" stop-color="#0a0a0a" />
      <stop offset="40%" stop-color="#1a1a1a" />
      <stop offset="70%" stop-color="#333333" />
      <stop offset="100%" stop-color="#e60000" stop-opacity="0.4" />
    </linearGradient>
  </defs>
  <rect width="400" height="300" fill="url(#skyGradient)" />
  
  <!-- Sun -->
  <circle cx="200" cy="250" r="80" fill="#e60000" opacity="0.5" />
  <circle cx="200" cy="250" r="60" fill="#e60000" opacity="0.7" />
  
  <!-- Mountains silhouette -->
  <path d="M0 200 L50 150 L100 180 L150 130 L200 170 L250 120 L300 160 L350 140 L400 190 L400 300 L0 300 Z" 
        fill="#0a0a0a" />
  
  <!-- Training ground -->
  <rect x="0" y="200" width="400" height="100" fill="#1a1a1a" />
  
  <!-- Training silhouettes -->
  <g>
    <!-- Central ninja silhouette -->
    <g transform="translate(200, 180)">
      <circle cx="0" cy="-30" r="10" fill="#0a0a0a" />
      <path d="M0 -20 L0 0 M-15 -10 L15 -10" stroke="#0a0a0a" stroke-width="4" />
      <path d="M-15 -10 L-25 10 M15 -10 L25 10" stroke="#0a0a0a" stroke-width="3" />
      <path d="M0 0 L-10 20 M0 0 L10 20" stroke="#0a0a0a" stroke-width="3" />
    </g>
    
    <!-- Second ninja silhouette -->
    <g transform="translate(150, 200) scale(0.8)">
      <circle cx="0" cy="-30" r="10" fill="#0a0a0a" />
      <path d="M0 -20 L0 0 M-15 -10 L15 -10" stroke="#0a0a0a" stroke-width="4" />
      <path d="M-15 -10 L-25 10 M15 -10 L25 10" stroke="#0a0a0a" stroke-width="3" />
      <path d="M0 0 L-10 20 M0 0 L10 20" stroke="#0a0a0a" stroke-width="3" />
    </g>
    
    <!-- Third ninja silhouette -->
    <g transform="translate(250, 200) scale(0.8)">
      <circle cx="0" cy="-30" r="10" fill="#0a0a0a" />
      <path d="M0 -20 L0 0 M-15 -10 L15 -10" stroke="#0a0a0a" stroke-width="4" />
      <path d="M-15 -10 L-25 10 M15 -10 L25 10" stroke="#0a0a0a" stroke-width="3" />
      <path d="M0 0 L-10 20 M0 0 L10 20" stroke="#0a0a0a" stroke-width="3" />
    </g>
  </g>
  
  <!-- Training ground details -->
  <rect x="150" y="220" width="100" height="5" fill="#333333" /> <!-- Training platform -->
  
  <!-- Light rays -->
  <g opacity="0.3" stroke="#e60000" stroke-width="1">
    <line x1="160" y1="250" x2="160" y2="150" />
    <line x1="170" y1="250" x2="170" y2="140" />
    <line x1="180" y1="250" x2="180" y2="130" />
    <line x1="190" y1="250" x2="190" y2="125" />
    <line x1="200" y1="250" x2="200" y2="120" />
    <line x1="210" y1="250" x2="210" y2="125" />
    <line x1="220" y1="250" x2="220" y2="130" />
    <line x1="230" y1="250" x2="230" y2="140" />
    <line x1="240" y1="250" x2="240" y2="150" />
  </g>
  
  <!-- Photo effect overlay -->
  <rect width="400" height="300" fill="#e60000" opacity="0.1" />
  
  <!-- Vignette effect -->
  <radialGradient id="vignette" cx="50%" cy="50%" r="65%" fx="50%" fy="50%">
    <stop offset="0%" stop-color="transparent" />
    <stop offset="100%" stop-color="#000000" stop-opacity="0.7" />
  </radialGradient>
  <rect width="400" height="300" fill="url(#vignette)" />
</svg> 