<svg xmlns="http://www.w3.org/2000/svg" viewBox="0 0 400 300" width="400" height="300">
  <!-- Background -->
  <rect width="400" height="300" fill="#0a0a0a" />
  
  <!-- Digital Universe Elements -->
  <g opacity="0.8">
    <!-- Stars and particles -->
    <g fill="#f2f2f2">
      <circle cx="50" cy="50" r="1" />
      <circle cx="100" cy="75" r="1.5" />
      <circle cx="150" cy="30" r="1" />
      <circle cx="200" cy="60" r="2" />
      <circle cx="250" cy="40" r="1" />
      <circle cx="300" cy="90" r="1.5" />
      <circle cx="350" cy="25" r="1" />
      <circle cx="75" cy="125" r="1" />
      <circle cx="125" cy="150" r="1.5" />
      <circle cx="175" cy="100" r="1" />
      <circle cx="225" cy="175" r="2" />
      <circle cx="275" cy="120" r="1" />
      <circle cx="325" cy="160" r="1.5" />
      <circle cx="375" cy="130" r="1" />
      <circle cx="60" cy="200" r="1" />
      <circle cx="110" cy="230" r="1.5" />
      <circle cx="160" cy="190" r="1" />
      <circle cx="210" cy="250" r="2" />
      <circle cx="260" cy="210" r="1" />
      <circle cx="310" cy="270" r="1.5" />
      <circle cx="360" cy="220" r="1" />
    </g>
    
    <!-- Abstract digital elements -->
    <path d="M150 150 L200 100 L250 150 L200 200 Z" fill="#e60000" opacity="0.7" />
    <path d="M180 180 L230 130 L280 180 L230 230 Z" fill="#f2f2f2" opacity="0.5" />
    
    <!-- Grid lines -->
    <g stroke="#333333" stroke-width="0.5" opacity="0.3">
      <line x1="0" y1="50" x2="400" y2="50" />
      <line x1="0" y1="100" x2="400" y2="100" />
      <line x1="0" y1="150" x2="400" y2="150" />
      <line x1="0" y1="200" x2="400" y2="200" />
      <line x1="0" y1="250" x2="400" y2="250" />
      
      <line x1="50" y1="0" x2="50" y2="300" />
      <line x1="100" y1="0" x2="100" y2="300" />
      <line x1="150" y1="0" x2="150" y2="300" />
      <line x1="200" y1="0" x2="200" y2="300" />
      <line x1="250" y1="0" x2="250" y2="300" />
      <line x1="300" y1="0" x2="300" y2="300" />
      <line x1="350" y1="0" x2="350" y2="300" />
    </g>
    
    <!-- Central element -->
    <circle cx="200" cy="150" r="50" fill="none" stroke="#e60000" stroke-width="2" />
    <circle cx="200" cy="150" r="25" fill="#e60000" opacity="0.5" />
    
    <!-- Digital wave -->
    <path d="M50 200 C100 150, 150 250, 200 150 S 300 250, 350 150" fill="none" stroke="#e60000" stroke-width="2" stroke-opacity="0.7" />
  </g>
</svg> 