<svg xmlns="http://www.w3.org/2000/svg" viewBox="0 0 100 100" width="100" height="100">
  <!-- Ninja mask -->
  <circle cx="50" cy="50" r="45" fill="#1a1a1a" />
  <path d="M50 5C25.15 5 5 25.15 5 50s20.15 45 45 45 45-20.15 45-45S74.85 5 50 5zm0 85c-22.09 0-40-17.91-40-40s17.91-40 40-40 40 17.91 40 40-17.91 40-40 40z" fill="#e60000" />

  <!-- Eyes -->
  <path d="M35 35c0 2.76-2.24 5-5 5s-5-2.24-5-5 2.24-5 5-5 5 2.24 5 5zm40 0c0 2.76-2.24 5-5 5s-5-2.24-5-5 2.24-5 5-5 5 2.24 5 5z" fill="#e60000" />
  
  <!-- Ninja headband -->
  <path d="M95 45H5c0-5 5-10 10-10h70c5 0 10 5 10 10z" fill="#e60000" />
  
  <!-- Ninja mask strips -->
  <path d="M25 60c10 10 40 10 50 0" fill="none" stroke="#e60000" stroke-width="2" />
  
  <!-- Throwing star -->
  <path d="M75 75l5-5-5-5 5-5-5-5 5 5 5-5-5 5 5 5-5 5 5 5-5-5-5 5z" fill="#f2f2f2" />
</svg> 